:SAMPLES-PER-SECOND 30
:FULLY-SPECIFIED
:DEGREES
446
root  -42.485 37.2525 -27.6319 141.053 -87.7995 -104.389
RightUpLeg  -70.4285 -11.5533 15.67
RightLeg  39.4339 0.565403 0.212867
RightFoot  -1.22847 0.75689 -8.62335
RightToes  0.000482159 0.542163 -0.142577
Spine  71.5912 -4.29965 6.43483
Spine1  6.79518 1.81046 -8.20346
HEad  -40.8596 -2.39735 -2.99262
LeftShoulder1  5.65529 -25.012 -12.6568
LeftArm  -97.4598 -71.8651 28.6272
LeftForeArm  21.6317 -23.6775 -3.8119
LeftHand  -0.25398 0.0180481 5.50724
RightShoulder  3.41399 14.6569 11.6809
RightArm  -76.7127 56.8499 -27.3439
RightForeArm  -28.2078 12.1778 3.16885
RightHand  -6.16247 16.6012 -32.1623
LeftUpLeg  -65.1824 8.61503 0.552888
LeftLeg  45.4444 5.73801 6.61821
LeftFoot  -10.9114 0.0796254 -3.78358
LeftToes  1.06245e-005 4.65856e-005 -8.18503e-006
447
root  -42.0755 37.1531 -27.3369 148.538 -87.6274 -113.101
RightUpLeg  -69.9108 -11.8421 15.1554
RightLeg  39.4219 0.824214 0.440542
RightFoot  -0.762609 0.790416 -8.56959
RightToes  0.000482159 0.542163 -0.142577
Spine  71.7216 -4.6185 6.9016
Spine1  6.33643 1.97839 -8.5985
HEad  -40.3445 -2.94609 -3.39679
LeftShoulder1  5.67693 -25.1463 -12.6344
LeftArm  -97.7192 -73.0452 32.835
LeftForeArm  19.3051 -19.2797 -2.17651
LeftHand  -0.25398 0.0180481 5.50724
RightShoulder  3.43748 14.9192 11.5212
RightArm  -76.7952 57.6316 -29.877
RightForeArm  -31.0383 6.92486 2.54029
RightHand  -5.5398 15.2774 -30.7834
LeftUpLeg  -65.072 8.38417 0.249286
LeftLeg  46.4543 5.89335 7.018
LeftFoot  -10.7179 0.0824839 -3.36681
LeftToes  1.06245e-005 4.65856e-005 -8.18503e-006
448
root  -41.5813 37.1168 -27.0183 154.173 -87.5093 -120.155
RightUpLeg  -68.9471 -12.2545 14.5462
RightLeg  38.6509 1.05381 0.622874
RightFoot  -0.238583 0.82442 -8.47539
RightToes  0.000482159 0.542163 -0.142577
Spine  71.8827 -5.00406 7.44762
Spine1  5.41444 2.14654 -9.04964
HEad  -39.2623 -3.57327 -3.98596
LeftShoulder1  5.99896 -25.9533 -13.2207
LeftArm  -96.5672 -74.011 38.2197
LeftForeArm  15.6646 -14.2518 -0.552899
LeftHand  -0.25398 0.0180481 5.50724
RightShoulder  3.45009 15.0131 11.4907
RightArm  -78.1875 58.591 -31.7973
RightForeArm  -33.5451 2.14904 1.82262
RightHand  -4.33483 12.4573 -28.1336
LeftUpLeg  -64.6311 8.26087 -0.322838
LeftLeg  46.8226 5.98322 7.20679
LeftFoot  -10.2372 0.0860344 -2.58089
LeftToes  1.06245e-005 4.65856e-005 -8.18503e-006
449
root  -41.029 37.1249 -26.6609 161.437 -87.3977 -128.958
RightUpLeg  -67.7567 -12.8359 13.9248
RightLeg  37.4173 1.4049 0.878524
RightFoot  0.617088 0.901575 -8.53997
RightToes  0.000482159 0.542163 -0.142577
Spine  71.8578 -5.0869 7.8287
Spine1  4.20504 2.33787 -9.04708
HEad  -38.1751 -4.09122 -4.96396
LeftShoulder1  6.4583 -27.0886 -14.0132
LeftArm  -97.2546 -74.7224 42.7115
LeftForeArm  15.3383 -9.02727 -0.108446
LeftHand  -0.25398 0.0180481 5.50724
RightShoulder  3.57428 15.364 11.8328
RightArm  -77.9296 59.4342 -33.3197
RightForeArm  -30.9455 -2.48197 1.39764
RightHand  -4.08043 11.4101 -28.0882
LeftUpLeg  -63.8874 8.47449 -1.37755
LeftLeg  46.5829 5.90313 7.0609
LeftFoot  -9.69464 0.0777728 -1.36432
LeftToes  1.06245e-005 4.65856e-005 -8.18503e-006
450
root  -40.4517 37.16 -26.246 169.487 -87.1594 -138.795
RightUpLeg  -66.3085 -13.5835 13.2814
RightLeg  36.0197 2.0977 1.37018
RightFoot  2.17948 1.04789 -8.68955
RightToes  0.000482159 0.542163 -0.142577
Spine  71.5089 -4.76797 7.89975
Spine1  3.25922 2.48004 -8.37326
HEad  -37.4127 -4.31908 -6.28514
LeftShoulder1  6.9366 -27.9965 -14.9824
LeftArm  -96.3139 -75.3009 43.7766
LeftForeArm  17.524 -4.55031 -0.291712
LeftHand  -0.25398 0.0180481 5.50724
RightShoulder  3.70153 15.8399 12.0423
RightArm  -73.7229 60.2519 -32.1822
RightForeArm  -21.7013 -5.91616 1.64733
RightHand  -5.17526 13.5621 -31.3124
LeftUpLeg  -62.7073 9.07644 -2.79265
LeftLeg  45.9394 5.63984 6.62399
LeftFoot  -9.28988 0.0524043 0.199235
LeftToes  1.06245e-005 4.65856e-005 -8.18503e-006
451
root  -39.8672 37.2285 -25.7702 174.256 -86.8244 -145.726
RightUpLeg  -64.3712 -14.3849 12.4387
RightLeg  34.4194 2.84355 1.83682
RightFoot  4.05688 1.16198 -8.37376
RightToes  0.000482159 0.542163 -0.142577
Spine  70.7446 -4.49541 7.76339
Spine1  3.41775 2.41341 -7.59998
HEad  -36.9365 -3.96286 -7.61498
LeftShoulder1  7.42633 -28.2557 -16.4541
LeftArm  -90.2962 -75.6673 39.8907
LeftForeArm  19.2577 -1.82067 -0.984384
LeftHand  -0.25398 0.0180481 5.50724
RightShoulder  3.77292 16.121 12.1386
RightArm  -66.3594 60.9736 -26.2518
RightForeArm  -10.8782 -6.00113 2.21932
RightHand  -6.74906 16.553 -35.0757
LeftUpLeg  -60.9787 9.93469 -4.28573
LeftLeg  44.9792 5.25582 6.00977
LeftFoot  -8.93285 0.011351 2.01318
LeftToes  1.06245e-005 4.65856e-005 -8.18503e-006
